<svg width="90" height="90" viewBox="0 0 90 90" fill="none" xmlns="http://www.w3.org/2000/svg">
<path d="M51.0824 26.6375L51.0791 18.6973C51.0865 17.7352 51.0333 17.4506 51.9401 17.0213C52.5393 16.9775 53.2731 17.0145 53.8848 17.0167L77.6925 17.0206C79.2175 17.0193 80.751 16.9939 82.2758 17.0506C84.3496 17.1202 83.5127 25.7441 83.3818 27.1295C83.248 28.5432 81.0665 28.1997 80.1131 28.1997L66.4958 28.1969C62.7022 31.7826 59.0784 35.7803 55.3294 39.4305C53.8 40.9198 54.3198 44.1342 54.2241 46.0903C54.4577 47.5562 52.1387 47.8044 52.0283 46.5605C51.8061 44.0583 51.7041 41.2106 52.8709 39.0586C53.6982 37.5032 55.4067 36.1246 56.6874 34.8302L63.3219 28.1969H52.8709C50.8709 29.7644 48.0348 32.9536 46.1668 34.821C44.6536 36.3335 44.8839 38.1794 44.8839 40.1396L44.8926 45.0717C44.8968 45.812 44.9294 46.5695 44.8613 47.3062C44.7359 48.6617 42.6391 48.5181 42.6209 47.1875C42.6113 46.4743 42.62 45.7562 42.62 45.0421L42.6209 40.7143C42.6235 35.4961 42.379 35.4291 46.1937 31.5543C47.8016 29.9207 49.5583 28.3462 51.0824 26.6375ZM53.3447 19.2306V25.9116H81.262L81.2576 21.202C81.2569 20.8618 81.2248 19.4561 81.262 19.2306H53.3447Z" fill="black"/>
<path d="M81.2711 72.8707C80.2317 73.0093 78.8845 72.9766 77.8022 72.9762L68.0301 72.9761C66.11 72.9764 64.57 73.0783 62.7025 72.5508C57.1825 70.9918 56.4636 67.6874 49.0397 69.1971C48.2744 69.3528 47.1729 69.9928 46.4904 70.3522C41.1281 73.4413 38.4583 72.9764 32.3573 72.9736L13.7387 72.9773C12.5054 72.9782 11.1108 73.0073 9.90095 72.95C6.20477 72.7747 7.09329 68.2563 7.0945 66.1822L7.09345 51.6452C7.09279 48.9126 6.45499 46.2711 10.8816 46.0725C15.4314 46.0133 20.194 46.0727 24.7594 46.0729L31.9405 46.0723C32.8879 46.0714 35.2666 45.9916 36.2667 46.1563C36.532 46.2001 37.2802 47.1955 37.5556 47.4571C42.8 52.4377 52.9724 52.8649 58.1664 47.5391C58.5608 47.1349 58.8986 46.5245 59.4049 46.2157C59.8466 45.9464 64.4521 46.0714 65.1662 46.0714L78.0307 46.0721C78.8764 46.0727 79.9966 46.0339 80.8075 46.1484C84.417 46.7109 83.5168 50.7267 83.5161 52.9848L83.5205 68.4311C83.5291 70.7378 83.7749 71.5446 81.2711 72.8707ZM10.8816 47.9349C8.50363 47.9338 9.30802 50.1768 9.30756 51.8662L9.30723 65.6949C9.30717 67.1608 9.27884 68.6338 9.34643 70.0996C9.38129 70.8558 9.59413 71.0977 10.5543 71.1108L33.9604 71.1119C41.3244 71.1119 40.2434 71.4201 46.3364 68.1842C48.9315 66.8061 53.2564 66.7266 56.128 67.5006C58.8103 68.2237 61.3428 70.3193 64.0168 70.9785C65.1705 71.2629 67.4377 71.1131 68.7454 71.1117L77.2547 71.1092C78.2474 71.1092 80.1115 71.3736 80.7841 70.9007C81.5879 70.1955 81.2764 68.8513 81.2733 67.8702V49.0199C81.2691 47.5734 79.1122 47.9328 77.9262 47.934L60.5867 47.9349C55.6821 55.149 40.1273 54.6207 35.1031 47.9349H10.8816Z" fill="black"/>
<path d="M15.5 57.5H33.9604V56H15.5V57.5Z" fill="black"/>
<path d="M36.5396 62.5H55V61H36.5396V62.5Z" fill="black"/>
<path d="M57.0396 57.5H75.5V56H57.0396V57.5Z" fill="black"/>
</svg>
