<svg width="90" height="90" viewBox="0 0 90 90" fill="none" xmlns="http://www.w3.org/2000/svg">
<path d="M4 17H86.4257M4 23.0446H10.0446M86.4257 23.0446H80.3812M4 66.4554H10.0446M86.4257 66.4554H80.3812M4 72.5H86.4257M10.0446 23.0446V66.4554M10.0446 23.0446H16.0891M10.0446 66.4554H16.0891M16.0891 66.4554V28.5396M16.0891 66.4554H38.0693M16.0891 23.0446V28.5396M16.0891 23.0446H20.4851M74.3366 66.4554H80.3812M74.3366 66.4554H52.3564M74.3366 66.4554V28.5396M74.3366 23.0446H80.3812M74.3366 23.0446H70.4901M74.3366 23.0446V28.5396M80.3812 66.4554V23.0446M41.9158 23.0446H48.5099M41.9158 23.0446V59.8614M41.9158 23.0446H20.4851M41.9158 66.4554H48.5099M41.9158 66.4554H38.0693M41.9158 66.4554V59.8614M48.5099 66.4554V59.8614M48.5099 66.4554H52.3564M48.5099 23.0446H70.4901M48.5099 23.0446V59.8614M70.4901 23.0446L48.5099 59.8614M52.3564 66.4554L74.3366 28.5396M16.0891 28.5396L38.0693 66.4554M41.9158 59.8614L20.4851 23.0446" stroke="black" stroke-width="2" stroke-linecap="round"/>
</svg>
