<svg width="90" height="90" viewBox="0 0 90 90" fill="none" xmlns="http://www.w3.org/2000/svg">
<path d="M12 72.2H26.1231V58.0769M12 72.2V79H48.6154M12 72.2L26.1231 58.0769M12 39.2462V47.6154H26.1231V58.0769M12 39.2462H48.6154M12 39.2462L42.8615 11H78.4308M48.6154 39.2462V47.6154M48.6154 39.2462L78.4308 11M48.6154 47.6154H33.9692L33.4462 72.2M48.6154 47.6154L63.7846 32.9692M33.4462 72.2H48.6154M33.4462 72.2L63.7846 41.8615M48.6154 72.2V79M48.6154 72.2L78.4308 41.8615M48.6154 79L78.4308 49.1846V41.8615M63.7846 41.8615V32.9692M63.7846 41.8615H78.4308M63.7846 32.9692L78.4308 18.3231V11" stroke="black" stroke-width="2" stroke-linecap="round"/>
</svg>
