<?xml version="1.0" encoding="UTF-8"?><!DOCTYPE svg PUBLIC "-//W3C//DTD SVG 1.1//EN" "http://www.w3.org/Graphics/SVG/1.1/DTD/svg11.dtd"><svg xmlns="http://www.w3.org/2000/svg" xmlns:xlink="http://www.w3.org/1999/xlink"><defs/><symbol id="drenagnaya-sistema" viewBox="0 0 90 90"><path d="M51.0824 26.6375L51.0791 18.6973C51.0865 17.7352 51.0333 17.4506 51.9401 17.0213C52.5393 16.9775 53.2731 17.0145 53.8848 17.0167L77.6925 17.0206C79.2175 17.0193 80.751 16.9939 82.2758 17.0506C84.3496 17.1202 83.5127 25.7441 83.3818 27.1295C83.248 28.5432 81.0665 28.1997 80.1131 28.1997L66.4958 28.1969C62.7022 31.7826 59.0784 35.7803 55.3294 39.4305C53.8 40.9198 54.3198 44.1342 54.2241 46.0903C54.4577 47.5562 52.1387 47.8044 52.0283 46.5605C51.8061 44.0583 51.7041 41.2106 52.8709 39.0586C53.6982 37.5032 55.4067 36.1246 56.6874 34.8302L63.3219 28.1969H52.8709C50.8709 29.7644 48.0348 32.9536 46.1668 34.821C44.6536 36.3335 44.8839 38.1794 44.8839 40.1396L44.8926 45.0717C44.8968 45.812 44.9294 46.5695 44.8613 47.3062C44.7359 48.6617 42.6391 48.5181 42.6209 47.1875C42.6113 46.4743 42.62 45.7562 42.62 45.0421L42.6209 40.7143C42.6235 35.4961 42.379 35.4291 46.1937 31.5543C47.8016 29.9207 49.5583 28.3462 51.0824 26.6375ZM53.3447 19.2306V25.9116H81.262L81.2576 21.202C81.2569 20.8618 81.2248 19.4561 81.262 19.2306H53.3447Z"/><path d="M81.2711 72.8707C80.2317 73.0093 78.8845 72.9766 77.8022 72.9762L68.0301 72.9761C66.11 72.9764 64.57 73.0783 62.7025 72.5508C57.1825 70.9918 56.4636 67.6874 49.0397 69.1971C48.2744 69.3528 47.1729 69.9928 46.4904 70.3522C41.1281 73.4413 38.4583 72.9764 32.3573 72.9736L13.7387 72.9773C12.5054 72.9782 11.1108 73.0073 9.90095 72.95C6.20477 72.7747 7.09329 68.2563 7.0945 66.1822L7.09345 51.6452C7.09279 48.9126 6.45499 46.2711 10.8816 46.0725C15.4314 46.0133 20.194 46.0727 24.7594 46.0729L31.9405 46.0723C32.8879 46.0714 35.2666 45.9916 36.2667 46.1563C36.532 46.2001 37.2802 47.1955 37.5556 47.4571C42.8 52.4377 52.9724 52.8649 58.1664 47.5391C58.5608 47.1349 58.8986 46.5245 59.4049 46.2157C59.8466 45.9464 64.4521 46.0714 65.1662 46.0714L78.0307 46.0721C78.8764 46.0727 79.9966 46.0339 80.8075 46.1484C84.417 46.7109 83.5168 50.7267 83.5161 52.9848L83.5205 68.4311C83.5291 70.7378 83.7749 71.5446 81.2711 72.8707ZM10.8816 47.9349C8.50363 47.9338 9.30802 50.1768 9.30756 51.8662L9.30723 65.6949C9.30717 67.1608 9.27884 68.6338 9.34643 70.0996C9.38129 70.8558 9.59413 71.0977 10.5543 71.1108L33.9604 71.1119C41.3244 71.1119 40.2434 71.4201 46.3364 68.1842C48.9315 66.8061 53.2564 66.7266 56.128 67.5006C58.8103 68.2237 61.3428 70.3193 64.0168 70.9785C65.1705 71.2629 67.4377 71.1131 68.7454 71.1117L77.2547 71.1092C78.2474 71.1092 80.1115 71.3736 80.7841 70.9007C81.5879 70.1955 81.2764 68.8513 81.2733 67.8702V49.0199C81.2691 47.5734 79.1122 47.9328 77.9262 47.934L60.5867 47.9349C55.6821 55.149 40.1273 54.6207 35.1031 47.9349H10.8816Z"/><path d="M15.5 57.5H33.9604V56H15.5V57.5Z"/><path d="M36.5396 62.5H55V61H36.5396V62.5Z"/><path d="M57.0396 57.5H75.5V56H57.0396V57.5Z"/></symbol><symbol id="metallicheskie-konstruktsii" viewBox="0 0 90 90"><path d="M4 17H86.4257M4 23.0446H10.0446M86.4257 23.0446H80.3812M4 66.4554H10.0446M86.4257 66.4554H80.3812M4 72.5H86.4257M10.0446 23.0446V66.4554M10.0446 23.0446H16.0891M10.0446 66.4554H16.0891M16.0891 66.4554V28.5396M16.0891 66.4554H38.0693M16.0891 23.0446V28.5396M16.0891 23.0446H20.4851M74.3366 66.4554H80.3812M74.3366 66.4554H52.3564M74.3366 66.4554V28.5396M74.3366 23.0446H80.3812M74.3366 23.0446H70.4901M74.3366 23.0446V28.5396M80.3812 66.4554V23.0446M41.9158 23.0446H48.5099M41.9158 23.0446V59.8614M41.9158 23.0446H20.4851M41.9158 66.4554H48.5099M41.9158 66.4554H38.0693M41.9158 66.4554V59.8614M48.5099 66.4554V59.8614M48.5099 66.4554H52.3564M48.5099 23.0446H70.4901M48.5099 23.0446V59.8614M70.4901 23.0446L48.5099 59.8614M52.3564 66.4554L74.3366 28.5396M16.0891 28.5396L38.0693 66.4554M41.9158 59.8614L20.4851 23.0446" stroke-width="2" stroke-linecap="round"/></symbol><symbol id="specialnye-stali-i-splavi" viewBox="0 0 90 90"><path d="M12 72.2H26.1231V58.0769M12 72.2V79H48.6154M12 72.2L26.1231 58.0769M12 39.2462V47.6154H26.1231V58.0769M12 39.2462H48.6154M12 39.2462L42.8615 11H78.4308M48.6154 39.2462V47.6154M48.6154 39.2462L78.4308 11M48.6154 47.6154H33.9692L33.4462 72.2M48.6154 47.6154L63.7846 32.9692M33.4462 72.2H48.6154M33.4462 72.2L63.7846 41.8615M48.6154 72.2V79M48.6154 72.2L78.4308 41.8615M48.6154 79L78.4308 49.1846V41.8615M63.7846 41.8615V32.9692M63.7846 41.8615H78.4308M63.7846 32.9692L78.4308 18.3231V11" stroke-width="2" stroke-linecap="round"/></symbol><symbol id="stroimateriali" viewBox="0 0 90 90"><path d="M16.1017 59.6091L10.8524 59.6126C7.72626 59.6132 6.61953 60.3468 6.62782 56.8137L6.62777 50.7442C6.62889 49.3805 6.24763 47.7374 8.00774 47.5836C8.02323 47.5832 8.03869 47.5825 8.05418 47.5821L24.7784 47.5795C28.7971 47.5745 28.1348 47.8011 28.1357 51.6091L28.1341 57.2873L33.8856 57.2853C38.3132 57.2812 37.8476 57.0065 37.847 61.1282L37.8429 67.07L42.4942 67.0643C44.5439 67.0632 46.732 66.7264 46.7198 69.5994C46.7091 72.1334 46.8103 74.8644 46.6768 77.3975C46.5756 79.3212 43.4604 78.9178 42.2464 78.9167L36.0523 78.9141L11.1877 78.9159C9.39036 78.9167 6.64084 79.571 6.63805 77.2167C6.63458 74.2822 6.60506 71.3049 6.6555 68.3741C6.68475 66.6736 9.40633 67.0649 10.6018 67.0656L16.1017 67.07V59.6091ZM11.3694 49.8463H8.9158C8.85389 52.1486 8.89357 54.9592 8.9158 57.2873H23.3438H25.8397V49.8463H11.3694ZM18.4191 59.6091V67.07H35.5438V59.6091H18.4191ZM8.9158 69.3651V76.631H25.8397V69.3651H8.9158ZM28.1341 69.3651V76.631H44.425V69.3651H28.1341Z"/><path d="M49.7284 15.4152C54.7655 14.166 57.492 13.8493 62.6791 14.7822C65.0965 15.3084 73.0631 18.3337 73.7431 20.6608C74.0887 21.8442 72.2298 22.5508 71.4612 22.9992C70.4423 23.5938 68.4576 24.982 67.4078 25.217C66.5047 24.9014 65.6483 24.3365 64.6848 23.9995C61.732 22.967 57.9808 22.9539 55.1347 24.2988C56.955 26.6792 53.7038 27.5013 51.8681 28.6126C52.7769 30.208 54.0268 31.9692 55.0424 33.5192L71.5028 58.8214C73.7027 62.2777 78.1213 67.2136 76.8545 71.1291C76.0382 73.6517 73.2212 75.1591 70.92 76.3161C68.6166 77.6222 65.309 76.9209 63.6571 74.8746C62.1623 73.0231 59.1746 66.5904 58.0287 64.2728L47.4895 43.8605C45.881 40.7064 44.227 37.2113 42.5355 34.1293C41.3167 34.6271 40.7851 34.453 39.992 33.4478C38.6085 34.0627 35.9488 35.7703 34.534 36.6199C35.1056 37.4355 35.2327 37.5901 35.0113 38.5601C34.3498 39.3576 30.8884 41.2009 29.8351 41.7561C28.1859 42.6249 26.886 39.1229 26.1569 37.892L23.5842 33.4532C21.6578 30.0724 21.505 29.5631 25.2133 27.8667C26.7225 27.1763 27.8722 25.4457 29.109 27.4803C30.8878 26.7031 33.1813 25.0439 35.0719 24.1121C33.4031 21.5749 35.6084 21.2101 37.7185 19.978L46.1516 15.0647C47.9552 14.0234 48.5595 13.3363 49.7284 15.4152ZM61.8427 17.1495C58.49 16.5952 54.3233 16.5143 51.1001 17.7223C51.7004 18.48 53.3348 21.0939 53.6422 21.9914C55.1632 21.565 56.326 21.1481 57.9057 20.8909C61.513 20.4295 64.2072 20.8979 67.4643 22.446C68.2002 22.0247 69.4798 21.2434 70.2261 20.9076C68.6143 19.2371 64.17 17.6311 61.8427 17.1495ZM47.833 16.8469C44.9099 18.9318 40.4927 21.3492 37.3 23.1469C38.2332 24.5271 38.3141 24.9635 36.8203 25.9179C34.881 27.1568 32.4023 28.3126 30.569 29.6461C31.3201 31.1067 32.4427 32.8486 33.2827 34.3542L35.1184 33.3187C36.7054 32.4338 38.2699 31.5206 39.8506 30.632C40.7734 30.1132 41.3493 30.8851 41.6814 31.6472C43.1985 30.8611 44.297 30.1531 45.7469 29.307L52.7911 25.1678C51.1428 22.4923 49.4978 19.4045 47.833 16.8469ZM49.6805 29.9934C48.258 30.7703 45.9474 31.9457 44.6594 32.8846C45.1348 33.8686 45.7015 34.8292 46.205 35.8079L64.6581 71.6747C65.5262 73.3613 66.7394 74.9318 68.9421 74.3961C70.2364 73.9456 71.3319 73.1075 72.5625 72.4862C76.1108 70.6954 74.4155 67.8784 72.9341 65.6135L51.6239 32.971C51.2662 32.4231 50.0161 30.3699 49.6805 29.9934ZM27.4535 29.4051C26.6293 29.852 25.8131 30.3491 25.0063 30.8295C25.1895 31.2761 29.6621 38.9602 29.7099 38.9932C30.5728 38.4995 31.3989 37.9961 32.2465 37.4757C31.3907 36.2435 28.1186 29.9808 27.4535 29.4051Z"/></symbol><symbol id="trubniy-prokat" viewBox="0 0 90 90"><path d="M14.9043 79V67.287M78.3492 15.2297L66.9617 15.2297M14.9043 58.8277V47.2775C14.9043 47.2775 14.9043 33.4497 24.6651 24.3397C34.4258 15.2297 46.7894 15.2297 46.7894 15.2297L58.5023 15.2297" stroke-width="2" stroke-linecap="round"/><path d="M36.378 78.9999V67.7751M36.378 57.9595V46.7895C36.378 46.7895 36.378 42.3717 39.3062 39.6316C42.2344 36.8914 45.8134 36.7033 45.8134 36.7033H57.4712H58.5023M78.3492 36.7033H67.1243" stroke-width="2" stroke-linecap="round"/><path d="M40.6076 67.2158H11V58.8277H40.6076V67.2158Z" stroke-width="2" stroke-linecap="round"/><path d="M66.8905 11V40.6076H58.5023V11H66.8905Z" stroke-width="2" stroke-linecap="round"/></symbol><symbol id="truboprovodnaya-armatura" viewBox="0 0 90 90"><path d="M41.6815 28.9782C39.6235 28.9496 37.5557 29.021 35.4962 28.9799C31.9202 28.9086 30.7157 29.5585 30.3959 25.1011C30.0374 20.1023 33.5667 21.0759 36.5799 21.0776L45.1952 21.0754L57.6938 21.0761C59.7998 21.0922 60.6725 22.1661 60.6725 24.54C60.6725 29.3894 59.0461 28.9813 55.3403 28.9806L49.3368 28.9782V33.7752C53.8151 33.8569 55.2126 37.5452 55.1788 41.9252C56.8653 42.4988 58.129 43.6146 58.9055 45.4156H76.2498C77.519 42.0845 77.4897 40.8763 81.0739 41.0982C86.0244 41.5282 86.44 40.5258 86.4408 47.1618L86.4387 54.4332C88.5665 54.3577 88.4739 57.0871 86.4387 57.0713L86.4423 63.6314C86.4436 71.4485 85.213 69.2453 80.6421 69.8177C76.8881 70.2878 77.4167 67.7856 75.7998 65.1557C75.2549 65.1884 74.4799 65.1588 73.9217 65.1579L58.7238 65.1557C56.8929 68.3919 54.7734 67.9053 51.7886 67.9057L45.776 67.9038L39.5742 67.907C36.635 67.9144 34.0875 68.4347 32.2937 65.1557H15.047C14.221 67.1837 13.881 69.8115 11.4861 69.806C6.04336 69.7935 4.63952 70.8602 4.63882 63.4654L4.64115 57.0713C2.57496 57.1011 2.33425 54.3003 4.64115 54.4332L4.63853 48.6227C4.63817 47.1124 4.57182 45.4845 4.66279 44.0046C5.02635 40.2928 7.77971 41.2315 9.87946 41.0982C13.6282 40.8597 13.4234 41.9022 14.8264 45.4156H32.0515C33.095 43.2533 33.8495 42.6675 35.8953 41.9252L35.8949 41.8794C35.8667 37.4323 37.2634 33.8067 41.6815 33.7752V28.9782ZM55.6601 23.75L35.2849 23.7469C34.5189 23.7447 33.4904 23.6929 32.7576 23.75C32.6974 24.5948 32.6695 25.5297 32.7576 26.374C33.6954 26.4025 34.6392 26.3716 35.5778 26.374C37.8751 26.3744 57.7952 26.5102 58.1909 26.2527C58.4562 25.8117 58.4046 24.3145 58.3568 23.75C57.8052 23.653 56.332 23.7599 55.6601 23.75ZM43.998 28.9782V33.7752H47.0243V28.9782H43.998ZM41.3429 36.4162C38.5491 36.791 38.1317 39.1872 38.1731 41.9252H49.825H52.8348C52.8606 38.3542 52.1388 36.4186 48.6769 36.4129L41.3429 36.4162ZM6.98305 43.7505C6.88975 43.9124 6.97573 45.0168 6.9773 45.2763L6.98504 65.0812C6.98772 65.7704 7.01845 66.4881 6.98305 67.1724C8.55376 67.1729 10.1534 67.1921 11.7215 67.1724L12.037 66.3716C12.2135 65.9195 12.9465 64.1613 12.9446 63.795L12.9275 51.5568C12.9273 50.1992 13.0619 47.8178 12.7257 46.5385C12.4923 45.6505 11.9568 44.7572 11.7215 43.7505C10.1509 43.7479 8.55135 43.7279 6.98305 43.7505ZM79.4576 43.7505C78.4224 46.8152 78.129 46.0612 78.1259 49.4752L78.1235 60.3149C78.1246 63.7503 77.871 64.0133 79.4576 67.1724H82.8303C84.2522 67.2255 84.0596 66.931 84.0609 65.4418L84.0615 46.1391C84.0615 45.4278 84.0928 44.4341 84.06 43.7505C82.6665 43.8298 80.8995 43.7476 79.4576 43.7505ZM36.6285 44.4771C33.6014 45.0517 33.878 47.9711 33.8759 50.6085L33.874 60.0863C33.8755 64.187 34.018 65.3407 38.2154 65.3128L54.3513 65.3061C57.0253 65.2448 57.0422 62.5824 57.0441 60.2957L57.0456 50.9272C57.0428 44.9935 56.7556 44.474 51.848 44.475L40.2267 44.4757C39.1175 44.4752 37.7056 44.3858 36.6285 44.4771ZM67.7047 48.0479H59.3365V62.5121C59.9008 62.5865 61.2557 62.5149 61.9124 62.5137L67.7047 62.5121H75.7998V48.0479H67.7047ZM15.2045 48.0479V62.5121H31.5787C31.6486 61.6192 31.5871 60.4072 31.5778 59.4925C31.5395 55.6841 31.626 51.8544 31.5787 48.0479H15.2045Z"/></symbol><symbol id="ventilyatsionnie-systems" viewBox="0 0 90 90"><path d="M55.6355 8.01111C56.6442 8.05897 58.0001 8.10476 59.7205 8.54822C61.4424 8.99212 63.4973 9.82419 65.9812 11.4125C68.427 12.9765 70.6069 14.654 72.3025 17.0345C74.0041 19.4237 75.1669 22.4487 75.7117 26.64C76.2728 30.9579 75.2056 34.4641 73.2068 37.182C71.2236 39.8785 68.366 41.7442 65.4138 42.9047C62.4767 44.0591 59.7266 44.5211 57.7117 44.6957C56.7029 44.783 55.8738 44.7989 55.2927 44.7924C55.0689 44.7898 54.8813 44.7811 54.7341 44.7748L54.7253 45.1713C54.7009 45.6529 54.6389 46.1245 54.5447 46.5844C54.648 46.6395 54.7674 46.705 54.9021 46.7738C55.3999 47.0281 56.0913 47.3603 56.8669 47.6761C57.6461 47.9934 58.4928 48.287 59.3025 48.4691C60.1249 48.654 60.8382 48.7078 61.3826 48.6107C61.9268 48.5137 62.6445 48.1758 63.6199 47.6302C64.537 47.1172 65.6718 46.427 66.8621 45.8197C69.2727 44.5898 72.2614 43.5044 75.616 44.2601C79.0188 45.0268 80.815 47.2455 81.7048 49.4984C82.5768 51.7064 82.5979 53.9732 82.5076 55.0717C82.4248 56.0774 82.3328 57.4304 81.8298 59.1332C81.3263 60.8377 80.422 62.8607 78.7478 65.2865C77.0992 67.6753 75.347 69.7946 72.908 71.4056C70.4601 73.0225 67.3945 74.0799 63.1843 74.4789C58.8478 74.8897 55.3798 73.7011 52.7312 71.6107C50.1036 69.5367 48.3364 66.6191 47.2781 63.6302C46.2417 60.7033 45.6332 57.9798 45.2839 55.9896C45.1535 55.2463 45.0614 54.6031 44.9939 54.0883C44.2269 54.0615 43.4839 53.9432 42.7742 53.7435C42.7064 53.8722 42.6202 54.04 42.5212 54.2386C42.2722 54.739 41.9461 55.4334 41.6384 56.2123C41.3296 56.9942 41.0471 57.8428 40.8738 58.6537C40.6977 59.4776 40.6507 60.191 40.7537 60.7338C40.8567 61.2763 41.2029 61.9905 41.7595 62.9594C42.2827 63.87 42.9848 64.9957 43.6052 66.1781C44.8623 68.5738 45.9819 71.5493 45.2625 74.9105C44.5325 78.3199 42.3324 80.1394 40.0886 81.0531C37.889 81.9487 35.6212 81.9947 34.5212 81.9164C33.514 81.8447 32.1593 81.7676 30.45 81.2836C28.7391 80.799 26.7048 79.9183 24.2595 78.2719C21.8514 76.6504 19.7117 74.9214 18.073 72.5013C16.4286 70.0727 15.3376 67.0214 14.8923 62.8187C14.4337 58.4892 15.5839 55.01 17.6462 52.3402C19.6927 49.6913 22.5932 47.8924 25.572 46.8021C28.4891 45.7345 31.2068 45.0967 33.1941 44.726C34.1888 44.5404 35.0042 44.4212 35.573 44.348C35.7033 44.3313 35.8208 44.3181 35.9246 44.306C35.9543 43.5599 36.0727 42.8365 36.2664 42.1449C36.2463 42.1339 36.224 42.1221 36.2 42.1088C36.0648 42.0342 35.8659 41.9259 35.6179 41.7982C35.1208 41.5423 34.4301 41.2074 33.655 40.889C32.877 40.5695 32.0324 40.2739 31.2234 40.0892C30.4015 39.9017 29.688 39.8455 29.1433 39.9408C28.5988 40.0362 27.8801 40.3719 26.9031 40.9144C25.9844 41.4246 24.8472 42.1116 23.655 42.7152C21.2406 43.9376 18.2484 45.0135 14.8962 44.2474C11.4958 43.4703 9.70588 41.2463 8.823 38.9906C7.95771 36.7796 7.94503 34.5115 8.03882 33.4135C8.12469 32.408 8.2201 31.0558 8.72827 29.3549C9.23707 27.652 10.1474 25.6317 11.8289 23.2113C13.4849 20.8276 15.2442 18.7132 17.6882 17.1097C20.1411 15.5005 23.2103 14.4537 27.4216 14.0677C31.7592 13.6704 35.2229 14.8687 37.865 16.9672C40.4865 19.0495 42.2456 21.9729 43.2947 24.9652C44.3219 27.8953 44.9213 30.6205 45.2644 32.6117C45.4361 33.6081 45.5449 34.4242 45.6101 34.9935C45.6221 35.0986 45.6302 35.1956 45.6394 35.2836C46.5608 35.3136 47.448 35.4758 48.2839 35.7523C48.3242 35.6718 48.3713 35.5832 48.4187 35.4847C48.6415 35.0223 48.9316 34.3774 49.2019 33.6498C49.7653 32.133 50.1528 30.4832 49.907 29.3363C49.7911 28.7964 49.4278 28.0906 48.8484 27.1351C48.3037 26.237 47.5749 25.1279 46.9265 23.9603C45.6131 21.5951 44.4237 18.6471 45.0632 15.2699C45.7122 11.8442 47.8691 9.97282 50.0906 9.00623C52.268 8.05903 54.5339 7.95891 55.6355 8.01111ZM35.8279 46.3314C35.2921 46.4004 34.5152 46.514 33.5623 46.6918C31.6532 47.048 29.0473 47.6592 26.2605 48.6791C23.5352 49.6765 20.9885 51.287 19.2302 53.5629C17.4882 55.8177 16.4753 58.7809 16.8806 62.6078C17.2995 66.5614 18.3076 69.2817 19.7292 71.3812C21.1568 73.4893 23.0511 75.0468 25.3767 76.6127C27.6648 78.1533 29.5076 78.9385 30.9949 79.3597C32.4839 79.7814 33.6503 79.8492 34.6628 79.9213C35.5828 79.9867 37.5153 79.9409 39.3337 79.2006C41.1081 78.478 42.7446 77.1159 43.3064 74.4916C43.8784 71.819 43.0176 69.3631 41.8337 67.1068C41.234 65.964 40.6018 64.9582 40.0251 63.9545C39.4818 63.0087 38.963 62.0239 38.7888 61.1068C38.6148 60.19 38.7154 59.1781 38.9167 58.2357C39.1209 57.2804 39.446 56.3212 39.7791 55.4779C40.1133 54.6316 40.4642 53.8823 40.7312 53.3461C40.7956 53.2168 40.8565 53.1002 40.9099 52.9965C38.3949 51.6566 36.5617 49.209 36.0583 46.3041C35.9875 46.3126 35.9104 46.3208 35.8279 46.3314ZM75.1765 46.2103C72.5082 45.6093 70.0408 46.4425 67.7703 47.601C66.62 48.1879 65.6071 48.81 64.5964 49.3754C63.6443 49.908 62.6532 50.4154 61.7341 50.5795C60.8152 50.7433 59.8036 50.6309 58.863 50.4193C57.9096 50.2048 56.953 49.8707 56.113 49.5287C55.2704 49.1856 54.5255 48.8267 53.9919 48.5541C53.9684 48.542 53.9453 48.5287 53.9226 48.517C52.6729 51.3169 50.0976 53.3919 46.9929 53.9467C47.0558 54.4149 47.1384 54.9883 47.2537 55.6449C47.5892 57.5567 48.1728 60.167 49.1628 62.9633C50.1309 65.6972 51.7129 68.2595 53.9705 70.0414C56.2075 71.8069 59.1619 72.851 62.9958 72.4877C66.9565 72.1123 69.6889 71.1346 71.8054 69.7367C73.9303 68.3331 75.5093 66.4575 77.1013 64.1508C78.6678 61.8809 79.4742 60.0474 79.9119 58.5658C80.3499 57.0827 80.4312 55.9176 80.5144 54.9066C80.5899 53.988 80.565 52.0573 79.8445 50.2328C79.1412 48.4522 77.7967 46.8006 75.1765 46.2103ZM45.3269 37.2758C42.2035 37.2759 39.5267 39.2096 38.4373 41.9525C38.1023 42.7958 37.9167 43.7175 37.9167 44.6869C37.917 48.7795 41.2348 52.0968 45.3269 52.097C49.4192 52.097 52.7368 48.7797 52.7371 44.6869C52.7371 40.5939 49.4194 37.2758 45.3269 37.2758ZM45.2478 40.931C47.2777 40.931 48.9233 42.5768 48.9236 44.6068C48.9236 46.6371 47.2779 48.2836 45.2478 48.2836L45.0583 48.2787C43.1164 48.18 41.572 46.5734 41.572 44.6068C41.5723 42.5769 43.218 40.9311 45.2478 40.931ZM45.2478 42.931C44.3226 42.9311 43.5723 43.6814 43.572 44.6068C43.572 45.5325 44.3224 46.2835 45.2478 46.2836C46.1733 46.2836 46.9236 45.5326 46.9236 44.6068C46.9233 43.6813 46.1731 42.931 45.2478 42.931ZM55.5417 10.0092C54.6206 9.96547 52.6896 10.0572 50.8894 10.8402C49.1327 11.6045 47.5286 13.0051 47.0291 15.642C46.5205 18.3272 47.4386 20.7621 48.6755 22.9896C49.3022 24.1182 49.959 25.1091 50.5593 26.099C51.1249 27.0316 51.6672 28.0037 51.863 28.9164C52.2402 30.6747 51.6487 32.8078 51.0769 34.347C50.7796 35.1473 50.4624 35.8498 50.2205 36.3519C50.1812 36.4334 50.1403 36.5086 50.1052 36.5795C52.3481 37.9044 53.9934 40.1323 54.5398 42.764C54.5466 42.7645 54.5567 42.7651 54.5691 42.766C54.6007 42.7682 54.6502 42.7713 54.7166 42.7748C54.8503 42.7817 55.0525 42.7894 55.3142 42.7924C55.8385 42.7983 56.6019 42.7845 57.5378 42.7035C59.4129 42.5411 61.9667 42.1108 64.6824 41.0433C67.3829 39.9818 69.8908 38.3129 71.5945 35.9965C73.2826 33.701 74.2252 30.7141 73.7292 26.8978C73.2169 22.9554 72.1444 20.26 70.6736 18.1947C69.1965 16.1209 67.2652 14.6084 64.9031 13.098C62.5791 11.612 60.7183 10.8697 59.2214 10.4838C57.7231 10.0976 56.5556 10.0573 55.5417 10.0092ZM36.6218 18.5326C34.3902 16.7601 31.4384 15.7065 27.6033 16.058C23.6415 16.4211 20.9067 17.3913 18.7859 18.7826C16.6566 20.1796 15.0716 22.0501 13.4724 24.3519C11.8988 26.6169 11.0865 28.4478 10.6443 29.9281C10.2016 31.4099 10.1173 32.5746 10.031 33.5853C9.95265 34.5037 9.97147 36.4343 10.6863 38.2611C11.384 40.0439 12.7232 41.6998 15.3416 42.2982C18.0081 42.9076 20.4775 42.0815 22.7517 40.9301C23.9039 40.3467 24.9189 39.7276 25.9314 39.1654C26.8852 38.6357 27.878 38.1312 28.7976 37.9701C29.7169 37.8091 30.7279 37.9256 31.6677 38.14C32.6203 38.3574 33.5759 38.6939 34.4148 39.0385C35.2568 39.3843 36.0012 39.7465 36.5339 40.0209C36.7204 40.1169 36.881 40.2037 37.0125 40.2748C38.3414 37.7752 40.765 35.9473 43.6433 35.4271C43.6365 35.3628 43.6312 35.2936 43.6228 35.2201C43.5613 34.6837 43.4582 33.9055 43.2937 32.9506C42.9641 31.0378 42.3884 28.4257 41.407 25.6263C40.4474 22.8894 38.8739 20.3215 36.6218 18.5326Z"/></symbol></svg>