<svg width="90" height="90" viewBox="0 0 90 90" fill="none" xmlns="http://www.w3.org/2000/svg">
<path d="M16.1017 59.6091L10.8524 59.6126C7.72626 59.6132 6.61953 60.3468 6.62782 56.8137L6.62777 50.7442C6.62889 49.3805 6.24763 47.7374 8.00774 47.5836C8.02323 47.5832 8.03869 47.5825 8.05418 47.5821L24.7784 47.5795C28.7971 47.5745 28.1348 47.8011 28.1357 51.6091L28.1341 57.2873L33.8856 57.2853C38.3132 57.2812 37.8476 57.0065 37.847 61.1282L37.8429 67.07L42.4942 67.0643C44.5439 67.0632 46.732 66.7264 46.7198 69.5994C46.7091 72.1334 46.8103 74.8644 46.6768 77.3975C46.5756 79.3212 43.4604 78.9178 42.2464 78.9167L36.0523 78.9141L11.1877 78.9159C9.39036 78.9167 6.64084 79.571 6.63805 77.2167C6.63458 74.2822 6.60506 71.3049 6.6555 68.3741C6.68475 66.6736 9.40633 67.0649 10.6018 67.0656L16.1017 67.07V59.6091ZM11.3694 49.8463H8.9158C8.85389 52.1486 8.89357 54.9592 8.9158 57.2873H23.3438H25.8397V49.8463H11.3694ZM18.4191 59.6091V67.07H35.5438V59.6091H18.4191ZM8.9158 69.3651V76.631H25.8397V69.3651H8.9158ZM28.1341 69.3651V76.631H44.425V69.3651H28.1341Z" fill="black"/>
<path d="M49.7284 15.4152C54.7655 14.166 57.492 13.8493 62.6791 14.7822C65.0965 15.3084 73.0631 18.3337 73.7431 20.6608C74.0887 21.8442 72.2298 22.5508 71.4612 22.9992C70.4423 23.5938 68.4576 24.982 67.4078 25.217C66.5047 24.9014 65.6483 24.3365 64.6848 23.9995C61.732 22.967 57.9808 22.9539 55.1347 24.2988C56.955 26.6792 53.7038 27.5013 51.8681 28.6126C52.7769 30.208 54.0268 31.9692 55.0424 33.5192L71.5028 58.8214C73.7027 62.2777 78.1213 67.2136 76.8545 71.1291C76.0382 73.6517 73.2212 75.1591 70.92 76.3161C68.6166 77.6222 65.309 76.9209 63.6571 74.8746C62.1623 73.0231 59.1746 66.5904 58.0287 64.2728L47.4895 43.8605C45.881 40.7064 44.227 37.2113 42.5355 34.1293C41.3167 34.6271 40.7851 34.453 39.992 33.4478C38.6085 34.0627 35.9488 35.7703 34.534 36.6199C35.1056 37.4355 35.2327 37.5901 35.0113 38.5601C34.3498 39.3576 30.8884 41.2009 29.8351 41.7561C28.1859 42.6249 26.886 39.1229 26.1569 37.892L23.5842 33.4532C21.6578 30.0724 21.505 29.5631 25.2133 27.8667C26.7225 27.1763 27.8722 25.4457 29.109 27.4803C30.8878 26.7031 33.1813 25.0439 35.0719 24.1121C33.4031 21.5749 35.6084 21.2101 37.7185 19.978L46.1516 15.0647C47.9552 14.0234 48.5595 13.3363 49.7284 15.4152ZM61.8427 17.1495C58.49 16.5952 54.3233 16.5143 51.1001 17.7223C51.7004 18.48 53.3348 21.0939 53.6422 21.9914C55.1632 21.565 56.326 21.1481 57.9057 20.8909C61.513 20.4295 64.2072 20.8979 67.4643 22.446C68.2002 22.0247 69.4798 21.2434 70.2261 20.9076C68.6143 19.2371 64.17 17.6311 61.8427 17.1495ZM47.833 16.8469C44.9099 18.9318 40.4927 21.3492 37.3 23.1469C38.2332 24.5271 38.3141 24.9635 36.8203 25.9179C34.881 27.1568 32.4023 28.3126 30.569 29.6461C31.3201 31.1067 32.4427 32.8486 33.2827 34.3542L35.1184 33.3187C36.7054 32.4338 38.2699 31.5206 39.8506 30.632C40.7734 30.1132 41.3493 30.8851 41.6814 31.6472C43.1985 30.8611 44.297 30.1531 45.7469 29.307L52.7911 25.1678C51.1428 22.4923 49.4978 19.4045 47.833 16.8469ZM49.6805 29.9934C48.258 30.7703 45.9474 31.9457 44.6594 32.8846C45.1348 33.8686 45.7015 34.8292 46.205 35.8079L64.6581 71.6747C65.5262 73.3613 66.7394 74.9318 68.9421 74.3961C70.2364 73.9456 71.3319 73.1075 72.5625 72.4862C76.1108 70.6954 74.4155 67.8784 72.9341 65.6135L51.6239 32.971C51.2662 32.4231 50.0161 30.3699 49.6805 29.9934ZM27.4535 29.4051C26.6293 29.852 25.8131 30.3491 25.0063 30.8295C25.1895 31.2761 29.6621 38.9602 29.7099 38.9932C30.5728 38.4995 31.3989 37.9961 32.2465 37.4757C31.3907 36.2435 28.1186 29.9808 27.4535 29.4051Z" fill="black"/>
</svg>
