<svg width="90" height="90" viewBox="0 0 90 90" fill="none" xmlns="http://www.w3.org/2000/svg">
<path d="M14.9043 79V67.287M78.3492 15.2297L66.9617 15.2297M14.9043 58.8277V47.2775C14.9043 47.2775 14.9043 33.4497 24.6651 24.3397C34.4258 15.2297 46.7894 15.2297 46.7894 15.2297L58.5023 15.2297" stroke="black" stroke-width="2" stroke-linecap="round"/>
<path d="M36.378 78.9999V67.7751M36.378 57.9595V46.7895C36.378 46.7895 36.378 42.3717 39.3062 39.6316C42.2344 36.8914 45.8134 36.7033 45.8134 36.7033H57.4712H58.5023M78.3492 36.7033H67.1243" stroke="black" stroke-width="2" stroke-linecap="round"/>
<path d="M40.6076 67.2158H11V58.8277H40.6076V67.2158Z" stroke="black" stroke-width="2" stroke-linecap="round"/>
<path d="M66.8905 11V40.6076H58.5023V11H66.8905Z" stroke="black" stroke-width="2" stroke-linecap="round"/>
</svg>
