<svg width="90" height="90" viewBox="0 0 90 90" fill="none" xmlns="http://www.w3.org/2000/svg">
<path d="M41.6815 28.9782C39.6235 28.9496 37.5557 29.021 35.4962 28.9799C31.9202 28.9086 30.7157 29.5585 30.3959 25.1011C30.0374 20.1023 33.5667 21.0759 36.5799 21.0776L45.1952 21.0754L57.6938 21.0761C59.7998 21.0922 60.6725 22.1661 60.6725 24.54C60.6725 29.3894 59.0461 28.9813 55.3403 28.9806L49.3368 28.9782V33.7752C53.8151 33.8569 55.2126 37.5452 55.1788 41.9252C56.8653 42.4988 58.129 43.6146 58.9055 45.4156H76.2498C77.519 42.0845 77.4897 40.8763 81.0739 41.0982C86.0244 41.5282 86.44 40.5258 86.4408 47.1618L86.4387 54.4332C88.5665 54.3577 88.4739 57.0871 86.4387 57.0713L86.4423 63.6314C86.4436 71.4485 85.213 69.2453 80.6421 69.8177C76.8881 70.2878 77.4167 67.7856 75.7998 65.1557C75.2549 65.1884 74.4799 65.1588 73.9217 65.1579L58.7238 65.1557C56.8929 68.3919 54.7734 67.9053 51.7886 67.9057L45.776 67.9038L39.5742 67.907C36.635 67.9144 34.0875 68.4347 32.2937 65.1557H15.047C14.221 67.1837 13.881 69.8115 11.4861 69.806C6.04336 69.7935 4.63952 70.8602 4.63882 63.4654L4.64115 57.0713C2.57496 57.1011 2.33425 54.3003 4.64115 54.4332L4.63853 48.6227C4.63817 47.1124 4.57182 45.4845 4.66279 44.0046C5.02635 40.2928 7.77971 41.2315 9.87946 41.0982C13.6282 40.8597 13.4234 41.9022 14.8264 45.4156H32.0515C33.095 43.2533 33.8495 42.6675 35.8953 41.9252L35.8949 41.8794C35.8667 37.4323 37.2634 33.8067 41.6815 33.7752V28.9782ZM55.6601 23.75L35.2849 23.7469C34.5189 23.7447 33.4904 23.6929 32.7576 23.75C32.6974 24.5948 32.6695 25.5297 32.7576 26.374C33.6954 26.4025 34.6392 26.3716 35.5778 26.374C37.8751 26.3744 57.7952 26.5102 58.1909 26.2527C58.4562 25.8117 58.4046 24.3145 58.3568 23.75C57.8052 23.653 56.332 23.7599 55.6601 23.75ZM43.998 28.9782V33.7752H47.0243V28.9782H43.998ZM41.3429 36.4162C38.5491 36.791 38.1317 39.1872 38.1731 41.9252H49.825H52.8348C52.8606 38.3542 52.1388 36.4186 48.6769 36.4129L41.3429 36.4162ZM6.98305 43.7505C6.88975 43.9124 6.97573 45.0168 6.9773 45.2763L6.98504 65.0812C6.98772 65.7704 7.01845 66.4881 6.98305 67.1724C8.55376 67.1729 10.1534 67.1921 11.7215 67.1724L12.037 66.3716C12.2135 65.9195 12.9465 64.1613 12.9446 63.795L12.9275 51.5568C12.9273 50.1992 13.0619 47.8178 12.7257 46.5385C12.4923 45.6505 11.9568 44.7572 11.7215 43.7505C10.1509 43.7479 8.55135 43.7279 6.98305 43.7505ZM79.4576 43.7505C78.4224 46.8152 78.129 46.0612 78.1259 49.4752L78.1235 60.3149C78.1246 63.7503 77.871 64.0133 79.4576 67.1724H82.8303C84.2522 67.2255 84.0596 66.931 84.0609 65.4418L84.0615 46.1391C84.0615 45.4278 84.0928 44.4341 84.06 43.7505C82.6665 43.8298 80.8995 43.7476 79.4576 43.7505ZM36.6285 44.4771C33.6014 45.0517 33.878 47.9711 33.8759 50.6085L33.874 60.0863C33.8755 64.187 34.018 65.3407 38.2154 65.3128L54.3513 65.3061C57.0253 65.2448 57.0422 62.5824 57.0441 60.2957L57.0456 50.9272C57.0428 44.9935 56.7556 44.474 51.848 44.475L40.2267 44.4757C39.1175 44.4752 37.7056 44.3858 36.6285 44.4771ZM67.7047 48.0479H59.3365V62.5121C59.9008 62.5865 61.2557 62.5149 61.9124 62.5137L67.7047 62.5121H75.7998V48.0479H67.7047ZM15.2045 48.0479V62.5121H31.5787C31.6486 61.6192 31.5871 60.4072 31.5778 59.4925C31.5395 55.6841 31.626 51.8544 31.5787 48.0479H15.2045Z" fill="black"/>
</svg>
