<svg width="90" height="90" viewBox="0 0 90 90" fill="none" xmlns="http://www.w3.org/2000/svg">
<path d="M55.6355 8.01111C56.6442 8.05897 58.0001 8.10476 59.7205 8.54822C61.4424 8.99212 63.4973 9.82419 65.9812 11.4125C68.427 12.9765 70.6069 14.654 72.3025 17.0345C74.0041 19.4237 75.1669 22.4487 75.7117 26.64C76.2728 30.9579 75.2056 34.4641 73.2068 37.182C71.2236 39.8785 68.366 41.7442 65.4138 42.9047C62.4767 44.0591 59.7266 44.5211 57.7117 44.6957C56.7029 44.783 55.8738 44.7989 55.2927 44.7924C55.0689 44.7898 54.8813 44.7811 54.7341 44.7748L54.7253 45.1713C54.7009 45.6529 54.6389 46.1245 54.5447 46.5844C54.648 46.6395 54.7674 46.705 54.9021 46.7738C55.3999 47.0281 56.0913 47.3603 56.8669 47.6761C57.6461 47.9934 58.4928 48.287 59.3025 48.4691C60.1249 48.654 60.8382 48.7078 61.3826 48.6107C61.9268 48.5137 62.6445 48.1758 63.6199 47.6302C64.537 47.1172 65.6718 46.427 66.8621 45.8197C69.2727 44.5898 72.2614 43.5044 75.616 44.2601C79.0188 45.0268 80.815 47.2455 81.7048 49.4984C82.5768 51.7064 82.5979 53.9732 82.5076 55.0717C82.4248 56.0774 82.3328 57.4304 81.8298 59.1332C81.3263 60.8377 80.422 62.8607 78.7478 65.2865C77.0992 67.6753 75.347 69.7946 72.908 71.4056C70.4601 73.0225 67.3945 74.0799 63.1843 74.4789C58.8478 74.8897 55.3798 73.7011 52.7312 71.6107C50.1036 69.5367 48.3364 66.6191 47.2781 63.6302C46.2417 60.7033 45.6332 57.9798 45.2839 55.9896C45.1535 55.2463 45.0614 54.6031 44.9939 54.0883C44.2269 54.0615 43.4839 53.9432 42.7742 53.7435C42.7064 53.8722 42.6202 54.04 42.5212 54.2386C42.2722 54.739 41.9461 55.4334 41.6384 56.2123C41.3296 56.9942 41.0471 57.8428 40.8738 58.6537C40.6977 59.4776 40.6507 60.191 40.7537 60.7338C40.8567 61.2763 41.2029 61.9905 41.7595 62.9594C42.2827 63.87 42.9848 64.9957 43.6052 66.1781C44.8623 68.5738 45.9819 71.5493 45.2625 74.9105C44.5325 78.3199 42.3324 80.1394 40.0886 81.0531C37.889 81.9487 35.6212 81.9947 34.5212 81.9164C33.514 81.8447 32.1593 81.7676 30.45 81.2836C28.7391 80.799 26.7048 79.9183 24.2595 78.2719C21.8514 76.6504 19.7117 74.9214 18.073 72.5013C16.4286 70.0727 15.3376 67.0214 14.8923 62.8187C14.4337 58.4892 15.5839 55.01 17.6462 52.3402C19.6927 49.6913 22.5932 47.8924 25.572 46.8021C28.4891 45.7345 31.2068 45.0967 33.1941 44.726C34.1888 44.5404 35.0042 44.4212 35.573 44.348C35.7033 44.3313 35.8208 44.3181 35.9246 44.306C35.9543 43.5599 36.0727 42.8365 36.2664 42.1449C36.2463 42.1339 36.224 42.1221 36.2 42.1088C36.0648 42.0342 35.8659 41.9259 35.6179 41.7982C35.1208 41.5423 34.4301 41.2074 33.655 40.889C32.877 40.5695 32.0324 40.2739 31.2234 40.0892C30.4015 39.9017 29.688 39.8455 29.1433 39.9408C28.5988 40.0362 27.8801 40.3719 26.9031 40.9144C25.9844 41.4246 24.8472 42.1116 23.655 42.7152C21.2406 43.9376 18.2484 45.0135 14.8962 44.2474C11.4958 43.4703 9.70588 41.2463 8.823 38.9906C7.95771 36.7796 7.94503 34.5115 8.03882 33.4135C8.12469 32.408 8.2201 31.0558 8.72827 29.3549C9.23707 27.652 10.1474 25.6317 11.8289 23.2113C13.4849 20.8276 15.2442 18.7132 17.6882 17.1097C20.1411 15.5005 23.2103 14.4537 27.4216 14.0677C31.7592 13.6704 35.2229 14.8687 37.865 16.9672C40.4865 19.0495 42.2456 21.9729 43.2947 24.9652C44.3219 27.8953 44.9213 30.6205 45.2644 32.6117C45.4361 33.6081 45.5449 34.4242 45.6101 34.9935C45.6221 35.0986 45.6302 35.1956 45.6394 35.2836C46.5608 35.3136 47.448 35.4758 48.2839 35.7523C48.3242 35.6718 48.3713 35.5832 48.4187 35.4847C48.6415 35.0223 48.9316 34.3774 49.2019 33.6498C49.7653 32.133 50.1528 30.4832 49.907 29.3363C49.7911 28.7964 49.4278 28.0906 48.8484 27.1351C48.3037 26.237 47.5749 25.1279 46.9265 23.9603C45.6131 21.5951 44.4237 18.6471 45.0632 15.2699C45.7122 11.8442 47.8691 9.97282 50.0906 9.00623C52.268 8.05903 54.5339 7.95891 55.6355 8.01111ZM35.8279 46.3314C35.2921 46.4004 34.5152 46.514 33.5623 46.6918C31.6532 47.048 29.0473 47.6592 26.2605 48.6791C23.5352 49.6765 20.9885 51.287 19.2302 53.5629C17.4882 55.8177 16.4753 58.7809 16.8806 62.6078C17.2995 66.5614 18.3076 69.2817 19.7292 71.3812C21.1568 73.4893 23.0511 75.0468 25.3767 76.6127C27.6648 78.1533 29.5076 78.9385 30.9949 79.3597C32.4839 79.7814 33.6503 79.8492 34.6628 79.9213C35.5828 79.9867 37.5153 79.9409 39.3337 79.2006C41.1081 78.478 42.7446 77.1159 43.3064 74.4916C43.8784 71.819 43.0176 69.3631 41.8337 67.1068C41.234 65.964 40.6018 64.9582 40.0251 63.9545C39.4818 63.0087 38.963 62.0239 38.7888 61.1068C38.6148 60.19 38.7154 59.1781 38.9167 58.2357C39.1209 57.2804 39.446 56.3212 39.7791 55.4779C40.1133 54.6316 40.4642 53.8823 40.7312 53.3461C40.7956 53.2168 40.8565 53.1002 40.9099 52.9965C38.3949 51.6566 36.5617 49.209 36.0583 46.3041C35.9875 46.3126 35.9104 46.3208 35.8279 46.3314ZM75.1765 46.2103C72.5082 45.6093 70.0408 46.4425 67.7703 47.601C66.62 48.1879 65.6071 48.81 64.5964 49.3754C63.6443 49.908 62.6532 50.4154 61.7341 50.5795C60.8152 50.7433 59.8036 50.6309 58.863 50.4193C57.9096 50.2048 56.953 49.8707 56.113 49.5287C55.2704 49.1856 54.5255 48.8267 53.9919 48.5541C53.9684 48.542 53.9453 48.5287 53.9226 48.517C52.6729 51.3169 50.0976 53.3919 46.9929 53.9467C47.0558 54.4149 47.1384 54.9883 47.2537 55.6449C47.5892 57.5567 48.1728 60.167 49.1628 62.9633C50.1309 65.6972 51.7129 68.2595 53.9705 70.0414C56.2075 71.8069 59.1619 72.851 62.9958 72.4877C66.9565 72.1123 69.6889 71.1346 71.8054 69.7367C73.9303 68.3331 75.5093 66.4575 77.1013 64.1508C78.6678 61.8809 79.4742 60.0474 79.9119 58.5658C80.3499 57.0827 80.4312 55.9176 80.5144 54.9066C80.5899 53.988 80.565 52.0573 79.8445 50.2328C79.1412 48.4522 77.7967 46.8006 75.1765 46.2103ZM45.3269 37.2758C42.2035 37.2759 39.5267 39.2096 38.4373 41.9525C38.1023 42.7958 37.9167 43.7175 37.9167 44.6869C37.917 48.7795 41.2348 52.0968 45.3269 52.097C49.4192 52.097 52.7368 48.7797 52.7371 44.6869C52.7371 40.5939 49.4194 37.2758 45.3269 37.2758ZM45.2478 40.931C47.2777 40.931 48.9233 42.5768 48.9236 44.6068C48.9236 46.6371 47.2779 48.2836 45.2478 48.2836L45.0583 48.2787C43.1164 48.18 41.572 46.5734 41.572 44.6068C41.5723 42.5769 43.218 40.9311 45.2478 40.931ZM45.2478 42.931C44.3226 42.9311 43.5723 43.6814 43.572 44.6068C43.572 45.5325 44.3224 46.2835 45.2478 46.2836C46.1733 46.2836 46.9236 45.5326 46.9236 44.6068C46.9233 43.6813 46.1731 42.931 45.2478 42.931ZM55.5417 10.0092C54.6206 9.96547 52.6896 10.0572 50.8894 10.8402C49.1327 11.6045 47.5286 13.0051 47.0291 15.642C46.5205 18.3272 47.4386 20.7621 48.6755 22.9896C49.3022 24.1182 49.959 25.1091 50.5593 26.099C51.1249 27.0316 51.6672 28.0037 51.863 28.9164C52.2402 30.6747 51.6487 32.8078 51.0769 34.347C50.7796 35.1473 50.4624 35.8498 50.2205 36.3519C50.1812 36.4334 50.1403 36.5086 50.1052 36.5795C52.3481 37.9044 53.9934 40.1323 54.5398 42.764C54.5466 42.7645 54.5567 42.7651 54.5691 42.766C54.6007 42.7682 54.6502 42.7713 54.7166 42.7748C54.8503 42.7817 55.0525 42.7894 55.3142 42.7924C55.8385 42.7983 56.6019 42.7845 57.5378 42.7035C59.4129 42.5411 61.9667 42.1108 64.6824 41.0433C67.3829 39.9818 69.8908 38.3129 71.5945 35.9965C73.2826 33.701 74.2252 30.7141 73.7292 26.8978C73.2169 22.9554 72.1444 20.26 70.6736 18.1947C69.1965 16.1209 67.2652 14.6084 64.9031 13.098C62.5791 11.612 60.7183 10.8697 59.2214 10.4838C57.7231 10.0976 56.5556 10.0573 55.5417 10.0092ZM36.6218 18.5326C34.3902 16.7601 31.4384 15.7065 27.6033 16.058C23.6415 16.4211 20.9067 17.3913 18.7859 18.7826C16.6566 20.1796 15.0716 22.0501 13.4724 24.3519C11.8988 26.6169 11.0865 28.4478 10.6443 29.9281C10.2016 31.4099 10.1173 32.5746 10.031 33.5853C9.95265 34.5037 9.97147 36.4343 10.6863 38.2611C11.384 40.0439 12.7232 41.6998 15.3416 42.2982C18.0081 42.9076 20.4775 42.0815 22.7517 40.9301C23.9039 40.3467 24.9189 39.7276 25.9314 39.1654C26.8852 38.6357 27.878 38.1312 28.7976 37.9701C29.7169 37.8091 30.7279 37.9256 31.6677 38.14C32.6203 38.3574 33.5759 38.6939 34.4148 39.0385C35.2568 39.3843 36.0012 39.7465 36.5339 40.0209C36.7204 40.1169 36.881 40.2037 37.0125 40.2748C38.3414 37.7752 40.765 35.9473 43.6433 35.4271C43.6365 35.3628 43.6312 35.2936 43.6228 35.2201C43.5613 34.6837 43.4582 33.9055 43.2937 32.9506C42.9641 31.0378 42.3884 28.4257 41.407 25.6263C40.4474 22.8894 38.8739 20.3215 36.6218 18.5326Z" fill="black"/>
</svg>
